<?xml version="1.0" standalone="no"?>
<!DOCTYPE svg PUBLIC "-//W3C//DTD SVG 20010904//EN"
 "http://www.w3.org/TR/2001/REC-SVG-20010904/DTD/svg10.dtd">
<svg version="1.0" xmlns="http://www.w3.org/2000/svg"
 width="32.000000pt" height="32.000000pt" viewBox="0 0 32.000000 32.000000"
 preserveAspectRatio="xMidYMid meet">

<g transform="translate(0.000000,32.000000) scale(0.100000,-0.100000)"
fill="#000000" stroke="none">
<path d="M23 272 c-13 -8 -21 -117 -10 -129 4 -3 19 0 33 7 31 17 59 3 59 -30
0 -33 -27 -47 -58 -31 -34 18 -54 5 -31 -20 40 -44 134 -9 134 50 0 28 -52 81
-79 81 -14 0 -21 6 -21 20 0 17 7 20 38 20 45 0 56 8 41 27 -12 14 -86 18
-106 5z"/>
<path d="M195 190 c-19 -7 -18 -8 6 -18 27 -11 69 -6 69 8 0 18 -42 24 -75 10z"/>
</g>
</svg>
